<svg viewBox="0 0 21 22" xmlns="http://www.w3.org/2000/svg">
<path d="M10.9083 1.16993L11.2837 0.839616L11.2837 0.839615L10.9083 1.16993ZM10.5385 1.00027L10.544 0.500305L10.5385 1.00027ZM12.7868 3.30454L12.4114 3.63485L12.5607 3.80454H12.7868V3.30454ZM8.1936 3.30454V3.80454H8.41301L8.56156 3.64307L8.1936 3.30454ZM10.165 1.16172L10.533 1.50024L10.533 1.50024L10.165 1.16172ZM8.78097 4.14307L8.41301 3.80454V3.80454L8.78097 4.14307ZM10.5247 2.24771L10.9001 1.9174L10.533 1.50024L10.1567 1.90918L10.5247 2.24771ZM3.78947 19.8955V20.3955H4.24325L4.28713 19.9438L3.78947 19.8955ZM16.7235 19.8955L16.2258 19.9438L16.2697 20.3955H16.7235V19.8955ZM12.1854 4.13485L11.81 4.46517V4.46517L12.1854 4.13485ZM15.7175 19.8955V20.3955H16.2819L16.2139 19.8352L15.7175 19.8955ZM4.79543 19.8955L4.29907 19.8352L4.2311 20.3955H4.79543V19.8955ZM11.2837 0.839615C11.0964 0.626771 10.8275 0.503438 10.544 0.500305L10.533 1.50024L10.533 1.50025L11.2837 0.839615ZM13.1621 2.97422L11.2837 0.839616L10.533 1.50024L12.4114 3.63485L13.1621 2.97422ZM17.4736 2.80454H12.7868V3.80454H17.4736V2.80454ZM20.4736 5.80454C20.4736 4.14769 19.1305 2.80454 17.4736 2.80454V3.80454C18.5782 3.80454 19.4736 4.69997 19.4736 5.80454H20.4736ZM20.4736 18.3955V5.80454H19.4736V18.3955H20.4736ZM17.4736 21.3955C19.1305 21.3955 20.4736 20.0523 20.4736 18.3955H19.4736C19.4736 19.5 18.5782 20.3955 17.4736 20.3955V21.3955ZM3.50012 21.3955H17.4736V20.3955H3.50012V21.3955ZM0.500122 18.3955C0.500122 20.0523 1.84327 21.3955 3.50012 21.3955V20.3955C2.39555 20.3955 1.50012 19.5 1.50012 18.3955H0.500122ZM0.500122 5.80454V18.3955H1.50012V5.80454H0.500122ZM3.50012 2.80454C1.84327 2.80454 0.500122 4.14769 0.500122 5.80454H1.50012C1.50012 4.69997 2.39555 3.80454 3.50012 3.80454V2.80454ZM8.1936 2.80454H3.50012V3.80454H8.1936V2.80454ZM9.79703 0.823188L7.82563 2.96601L8.56156 3.64307L10.533 1.50024L9.79703 0.823188ZM10.544 0.500305C10.2605 0.497172 9.98899 0.614532 9.79703 0.823189L10.533 1.50024L10.533 1.50024L10.544 0.500305ZM9.14894 4.4816L10.8927 2.58624L10.1567 1.90918L8.41301 3.80454L9.14894 4.4816ZM8.41301 4.80454C8.69268 4.80454 8.95958 4.68742 9.14894 4.4816L8.41301 3.80454L8.41301 3.80454V4.80454ZM3.50012 4.80454H8.41301V3.80454H3.50012V4.80454ZM2.50012 5.80454C2.50012 5.25225 2.94784 4.80454 3.50012 4.80454V3.80454C2.39555 3.80454 1.50012 4.69997 1.50012 5.80454H2.50012ZM2.50012 18.3955V5.80454H1.50012V18.3955H2.50012ZM3.50012 19.3955C2.94784 19.3955 2.50012 18.9477 2.50012 18.3955H1.50012C1.50012 19.5 2.39555 20.3955 3.50012 20.3955V19.3955ZM3.78947 19.3955H3.50012V20.3955H3.78947V19.3955ZM4.28713 19.9438C4.51376 17.6108 6.48114 15.7869 8.8739 15.7869V14.7869C5.96128 14.7869 3.56773 17.0067 3.29181 19.8471L4.28713 19.9438ZM8.8739 15.7869H11.6391V14.7869H8.8739V15.7869ZM11.6391 15.7869C14.0318 15.7869 15.9992 17.6108 16.2258 19.9438L17.2211 19.8471C16.9452 17.0067 14.5517 14.7869 11.6391 14.7869V15.7869ZM17.4736 19.3955H16.7235V20.3955H17.4736V19.3955ZM18.4736 18.3955C18.4736 18.9477 18.0259 19.3955 17.4736 19.3955V20.3955C18.5782 20.3955 19.4736 19.5 19.4736 18.3955H18.4736ZM18.4736 5.80454V18.3955H19.4736V5.80454H18.4736ZM17.4736 4.80454C18.0259 4.80454 18.4736 5.25225 18.4736 5.80454H19.4736C19.4736 4.69997 18.5782 3.80454 17.4736 3.80454V4.80454ZM12.5607 4.80454H17.4736V3.80454H12.5607V4.80454ZM11.81 4.46517C11.9999 4.6809 12.2734 4.80454 12.5607 4.80454V3.80454V3.80454L11.81 4.46517ZM10.1493 2.57803L11.81 4.46517L12.5607 3.80454L10.9001 1.9174L10.1493 2.57803ZM16.2139 19.8352C15.9371 17.554 13.9948 15.7869 11.6391 15.7869V16.7869C13.483 16.7869 15.0046 18.1704 15.2212 19.9557L16.2139 19.8352ZM11.6391 15.7869H8.8739V16.7869H11.6391V15.7869ZM8.8739 15.7869C6.51813 15.7869 4.57584 17.554 4.29907 19.8352L5.29179 19.9557C5.50839 18.1704 7.02996 16.7869 8.8739 16.7869V15.7869ZM15.7175 19.3955H4.79543V20.3955H15.7175V19.3955ZM12.6275 10.2563C12.6275 11.464 11.6484 12.4431 10.4406 12.4431V13.4431C12.2007 13.4431 13.6275 12.0163 13.6275 10.2563H12.6275ZM10.4406 8.0694C11.6484 8.0694 12.6275 9.0485 12.6275 10.2563H13.6275C13.6275 8.49621 12.2007 7.0694 10.4406 7.0694V8.0694ZM8.25377 10.2563C8.25377 9.0485 9.23286 8.0694 10.4406 8.0694V7.0694C8.68058 7.0694 7.25377 8.49621 7.25377 10.2563H8.25377ZM10.4406 12.4431C9.23286 12.4431 8.25377 11.464 8.25377 10.2563H7.25377C7.25377 12.0163 8.68058 13.4431 10.4406 13.4431V12.4431ZM13.6275 10.2563C13.6275 12.0163 12.2007 13.4431 10.4406 13.4431V14.4431C12.753 14.4431 14.6275 12.5686 14.6275 10.2563H13.6275ZM10.4406 7.0694C12.2007 7.0694 13.6275 8.49621 13.6275 10.2563H14.6275C14.6275 7.94393 12.753 6.0694 10.4406 6.0694V7.0694ZM7.25377 10.2563C7.25377 8.49621 8.68058 7.0694 10.4406 7.0694V6.0694C8.12829 6.0694 6.25377 7.94393 6.25377 10.2563H7.25377ZM10.4406 13.4431C8.68058 13.4431 7.25377 12.0163 7.25377 10.2563H6.25377C6.25377 12.5686 8.12829 14.4431 10.4406 14.4431V13.4431Z" />
</svg>
